<?xml version="1.0" encoding="UTF-8" standalone="no"?>
<svg
   xmlns:dc="http://purl.org/dc/elements/1.1/"
   xmlns:cc="http://creativecommons.org/ns#"
   xmlns:rdf="http://www.w3.org/1999/02/22-rdf-syntax-ns#"
   xmlns:svg="http://www.w3.org/2000/svg"
   xmlns="http://www.w3.org/2000/svg"
   xmlns:sodipodi="http://sodipodi.sourceforge.net/DTD/sodipodi-0.dtd"
   xmlns:inkscape="http://www.inkscape.org/namespaces/inkscape"
   sodipodi:docname="banner.svg"
   inkscape:version="1.0 (4035a4fb49, 2020-05-01)"
   id="svg8"
   version="1.1"
   viewBox="0 0 297 210"
   height="210mm"
   width="297mm">
  <defs
     id="defs2">
    <rect
       id="rect22"
       height="207.8869"
       width="295.57738"
       y="2.2678571"
       x="0.75595238" />
  </defs>
  <sodipodi:namedview
     inkscape:window-maximized="0"
     inkscape:window-y="0"
     inkscape:window-x="52"
     inkscape:window-height="728"
     inkscape:window-width="1274"
     inkscape:snap-global="false"
     inkscape:snap-text-baseline="false"
     showgrid="false"
     inkscape:document-rotation="0"
     inkscape:current-layer="layer1"
     inkscape:document-units="mm"
     inkscape:cy="560"
     inkscape:cx="365.71429"
     inkscape:zoom="0.35"
     inkscape:pageshadow="2"
     inkscape:pageopacity="0.0"
     borderopacity="1.0"
     bordercolor="#666666"
     pagecolor="#ffffff"
     id="base" />
  <metadata
     id="metadata5">
    <rdf:RDF>
      <cc:Work
         rdf:about="">
        <dc:format>image/svg+xml</dc:format>
        <dc:type
           rdf:resource="http://purl.org/dc/dcmitype/StillImage" />
        <dc:title></dc:title>
      </cc:Work>
    </rdf:RDF>
  </metadata>
  <g
     id="layer1"
     inkscape:groupmode="layer"
     inkscape:label="Layer 1">
    <text
       style="line-height:2;font-family:'Lucida Sans Unicode';font-size:9.87777778px;-inkscape-font-specification:'Lucida Sans Unicode';white-space:pre;shape-inside:url(#rect22);"
       id="text20"
       xml:space="preserve" />
    <path
       d="M 44.694691,199.46601 H 4.1261949 V 4.6446447 H 12.653331 V 176.43811 h 32.04136 z"
       style="font-size:153.734px;fill:#ff0000;stroke-width:3.60315"
       id="path3226" />
    <path
       d="m 89.95742,199.46601 h -8.053409 v -15.57 q -1.076656,2.22429 -2.928512,6.28034 -1.808782,3.92521 -3.531438,6.28034 -2.024121,3.00932 -4.651167,4.97194 -2.627046,2.09344 -6.158484,2.09344 -6.503018,0 -11.024986,-13.08404 -4.521966,-13.08404 -4.521966,-33.3643 0,-16.61674 2.325582,-26.82229 2.368649,-10.33639 6.718352,-16.22421 4.392765,-5.88782 10.551254,-7.98127 6.158484,-2.09344 13.221365,-3.14017 v -3.794367 q 0,-8.373788 -0.990523,-13.869085 -0.94746,-5.495296 -2.756248,-8.635467 -1.722655,-3.00933 -4.134369,-4.056052 -2.411713,-1.046723 -5.038765,-1.046723 -3.186908,0 -7.105943,2.616807 -3.919036,2.485968 -8.096474,7.327064 H 53.351025 V 56.457449 q 2.36865,-1.962608 6.847551,-4.317734 4.478897,-2.355128 8.828599,-2.355128 5.081829,0 8.828599,2.616808 3.78984,2.485967 6.546088,8.635468 2.713178,6.018658 4.134368,15.570008 1.42119,9.55135 1.42119,23.682119 z M 81.904011,163.4849 v -40.69136 q -3.703702,0.6542 -8.742467,1.9626 -4.995696,1.30841 -7.924208,3.79438 -3.488375,3.00932 -5.641691,9.4205 -2.153317,6.28034 -2.153317,17.40178 0,12.56068 2.497846,18.97186 2.497851,6.28033 7.622748,6.28033 4.263564,0 7.795007,-4.97192 3.531438,-5.10278 6.546082,-12.16817 z"
       style="font-size:153.734px;fill:#008000;stroke-width:3.60315"
       id="path3228" />
    <path
       d="m 145.513,199.46601 h -8.09647 v -16.2242 q -4.0913,9.81303 -7.83807,15.04664 -3.74678,5.23362 -8.26874,5.23362 -7.57968,0 -11.80018,-13.99993 -4.2205,-14.13075 -4.2205,-41.34556 V 53.317277 h 8.09647 v 83.214503 q 0,11.12144 0.34453,19.1027 0.34453,7.85042 1.46426,13.47656 1.16279,5.75697 3.01464,8.37379 1.85185,2.61681 5.3833,2.61681 3.14384,0 6.84754,-4.97195 3.74677,-4.97192 6.97675,-12.69151 V 53.317277 h 8.09647 z"
       style="font-size:153.734px;fill:#d40055;stroke-width:3.60315"
       id="path3230" />
    <path
       d="m 191.46478,80.139563 h -0.43066 q -1.80879,-1.308404 -3.53144,-1.831766 -1.67959,-0.654202 -4.00517,-0.654202 -3.74678,0 -7.23515,5.102775 -3.48837,4.971937 -6.71835,12.953202 V 199.46601 h -8.09647 V 53.317277 h 8.09647 v 21.58867 q 4.82344,-11.775639 8.48407,-16.616733 3.70371,-4.971937 7.53661,-4.971937 2.11025,0 3.05771,0.392523 0.94746,0.261679 2.84238,1.177562 z"
       style="font-size:153.734px;fill:#006680;stroke-width:3.60315"
       id="path3232" />
    <path
       d="m 239.4407,128.94304 h -35.44361 q 0,13.47656 1.33506,23.55127 1.33506,9.94387 3.66064,16.35505 2.23945,6.28033 5.29716,9.4205 3.10078,3.14017 6.80448,3.14017 4.90956,0 9.8622,-5.88781 4.99569,-6.01866 7.10594,-11.77563 h 0.43067 v 26.82227 q -4.09131,5.23362 -8.35488,8.76632 -4.26356,3.53268 -8.9578,3.53268 -11.97244,0 -18.69079,-19.62605 -6.71835,-19.75691 -6.71835,-55.9997 0,-35.850273 6.41689,-56.915578 6.45995,-21.065307 16.96814,-21.065307 9.73299,0 14.98709,17.270934 5.29716,17.270936 5.29716,49.065151 z m -7.88115,-18.84102 q -0.0431,-19.364385 -3.22997,-29.962457 -3.14384,-10.598074 -9.60379,-10.598074 -6.50302,0 -10.37899,11.644796 -3.83291,11.644797 -4.34971,28.915735 z"
       style="font-size:153.734px;fill:#0000d4;stroke-width:3.60315"
       id="path3234" />
    <path
       d="m 291.93857,199.46601 h -8.09647 v -83.21449 q 0,-10.07471 -0.38759,-18.841023 -0.3876,-8.897148 -1.42119,-13.869084 -1.07666,-5.495297 -3.10078,-8.112106 -2.02412,-2.747649 -5.25409,-2.747649 -3.31611,0 -6.93368,4.971937 -3.61758,4.971936 -6.93368,12.69152 V 199.46601 h -8.09648 V 53.317277 h 8.09648 v 16.224212 q 3.78983,-9.55135 7.83807,-14.915806 4.04823,-5.364458 8.3118,-5.364458 7.79501,0 11.88632,14.261606 4.09129,14.261604 4.09129,41.083889 z"
       style="font-size:153.734px;fill:#800080;stroke-width:3.60315"
       id="path3236" />
  </g>
</svg>
