<?xml version="1.0" encoding="UTF-8" standalone="no"?>
<svg
   xmlns:dc="http://purl.org/dc/elements/1.1/"
   xmlns:cc="http://creativecommons.org/ns#"
   xmlns:rdf="http://www.w3.org/1999/02/22-rdf-syntax-ns#"
   xmlns:svg="http://www.w3.org/2000/svg"
   xmlns="http://www.w3.org/2000/svg"
   xmlns:sodipodi="http://sodipodi.sourceforge.net/DTD/sodipodi-0.dtd"
   xmlns:inkscape="http://www.inkscape.org/namespaces/inkscape"
   sodipodi:docname="logo1.svg"
   inkscape:version="1.0 (4035a4fb49, 2020-05-01)"
   id="svg8"
   version="1.1"
   viewBox="0 0 297 210"
   height="210mm"
   width="297mm">
  <title
     id="title34">sig</title>
  <defs
     id="defs2" />
  <sodipodi:namedview
     inkscape:window-maximized="0"
     inkscape:window-y="0"
     inkscape:window-x="52"
     inkscape:window-height="728"
     inkscape:window-width="1274"
     showgrid="false"
     inkscape:document-rotation="0"
     inkscape:current-layer="layer1"
     inkscape:document-units="mm"
     inkscape:cy="560"
     inkscape:cx="400"
     inkscape:zoom="0.35"
     inkscape:pageshadow="2"
     inkscape:pageopacity="0.0"
     borderopacity="1.0"
     bordercolor="#666666"
     pagecolor="#ffffff"
     id="base" />
  <metadata
     id="metadata5">
    <rdf:RDF>
      <cc:Work
         rdf:about="">
        <dc:format>image/svg+xml</dc:format>
        <dc:type
           rdf:resource="http://purl.org/dc/dcmitype/StillImage" />
        <dc:title>sig</dc:title>
      </cc:Work>
    </rdf:RDF>
  </metadata>
  <g
     id="layer1"
     inkscape:groupmode="layer"
     inkscape:label="Layer 1">
    <path
       d="m 13.776645,27.193017 c -0.760613,4.108337 -0.681448,8.304544 -0.707251,12.4698 -3.4e-5,1.639652 -0.04891,3.280031 -1.02e-4,4.918958 0.09567,3.212955 0.54101,9.086585 0.775572,12.246814 0.445833,6.006682 0.864855,12.014845 1.318659,18.020924 0.940435,9.167823 1.589425,18.355693 1.904966,27.564987 0.140377,5.33035 0.131284,10.66348 0.02445,15.99421 0.191436,1.79096 -0.575954,3.92853 0.249523,5.63721 0.134071,0.27752 0.348445,0.50848 0.522667,0.76273 0.291827,0.22578 0.551813,0.5002 0.87548,0.67734 0.949444,0.51964 2.717235,1.05467 3.681327,1.35855 2.423906,0.76403 4.857911,1.49794 7.297626,2.20949 4.324715,1.29938 8.680627,2.46254 12.930396,3.99514 2.4276,0.95002 4.809435,2.01038 7.21867,3.0048 3.435582,1.31264 6.907482,2.52199 10.348092,3.82226 3.220831,1.10474 6.492015,2.08813 9.84106,2.71553 2.027129,0.3626 4.082336,0.49109 6.137503,0.54233 0.267195,0.003 0.534389,0.007 0.801584,0.01 0,0 9.014217,-6.54336 9.014217,-6.54336 v 0 c -0.267566,0.001 -0.535133,0.002 -0.802699,0.003 -2.055947,-0.003 -4.116038,-0.0411 -6.156663,-0.31963 -3.356904,-0.50386 -6.635356,-1.4187 -9.867498,-2.44374 -3.396035,-1.26529 -6.773106,-2.58487 -10.145659,-3.91211 -2.444592,-1.0231 -4.875588,-2.07746 -7.365884,-2.98724 -4.344672,-1.43385 -8.745921,-2.64429 -13.142097,-3.90824 -3.724683,-1.12472 -7.605154,-2.10499 -11.063378,-3.90503 C 26.25536,117.6296 27.085899,115.22162 26.79526,113.46302 26.669001,108.1952 26.562059,102.92642 26.294857,97.663253 25.818535,88.50424 24.996327,79.37752 23.981436,70.26276 22.891199,58.555262 21.649549,46.772478 22.290778,35.005803 c 0.276917,-4.27474 0.524522,-8.557295 1.549347,-12.732763 0,0 -10.063479,4.919983 -10.063479,4.919983 z"
       id="path10"
       style="fill:#ff0000;stroke-width:0.264583" />
    <path
       d="m 113.82069,70.024778 c -2.14372,-0.721702 -4.38679,-1.021215 -6.62738,-1.245042 -0.46638,-0.03631 -1.83612,-0.171535 -2.29542,-0.0895 -0.47146,0.08421 -0.9522,0.208372 -1.3629,0.454726 -3.555527,2.13274 -7.209981,4.144092 -10.503216,6.66302 -0.349734,0.267505 -2.287489,4.935419 -2.320866,5.013116 -2.687889,8.786149 -5.12871,17.64416 -9.029769,26.002692 -1.36702,2.92902 -2.91655,5.76934 -4.374824,8.65401 -8.640855,14.9815 -17.92315,29.5721 -26.073963,44.83311 -1.913818,3.74142 -3.871002,7.46622 -5.498226,11.34476 -0.725409,1.72903 -1.306767,3.50448 -2.096019,5.20531 3.235595,-1.80458 6.541884,-3.48788 9.70679,-5.41375 0.521681,-0.31745 0.868984,-2.79306 0.935397,-3.03074 0.337397,-1.20754 0.700564,-2.40939 1.12431,-3.5894 1.460124,-4.06603 3.378771,-8.31032 5.067326,-12.23642 6.760721,-15.26265 12.644737,-30.88859 19.045695,-46.30075 2.668339,-6.763815 5.744102,-13.333522 9.739911,-19.421682 2.964473,-4.516784 4.029768,-5.724991 7.29535,-9.938242 4.887494,-5.448581 10.127824,-10.710476 16.260094,-14.769838 1.12949,-0.747686 4.61758,-2.830997 3.496,-2.0715 -1.89345,1.282174 -3.87606,2.427481 -5.81409,3.641222 2.77809,-1.061299 6.16203,-2.173993 8.97271,-0.493662 0.55631,0.332589 1.16678,0.693933 1.47965,1.261576 0.53721,0.974645 0.65039,2.128634 0.97558,3.192952 0.10321,1.722612 0.44346,3.447335 0.30962,5.167839 -0.43328,5.569823 -2.36168,12.164213 -4.13877,17.317307 -3.49486,10.134148 -8.3695,19.692978 -13.09814,29.282958 -6.554119,12.53464 -11.176712,26.00541 -14.366603,39.76761 -1.442423,6.22308 -1.853763,9.39996 -2.831803,15.51349 -0.690235,4.99706 -1.027124,10.03383 -1.057183,15.07555 0,0 9.648595,-4.97647 9.648595,-4.97647 v 0 c -0.523674,-4.76308 -0.415798,-9.558 0.0046,-14.32936 0.733994,-6.13839 0.933778,-8.8412 2.25728,-15.12512 2.897554,-13.75742 7.723444,-27.03898 14.229674,-39.49969 4.73708,-9.68311 9.5104,-19.316892 13.18458,-29.471282 1.79018,-4.947523 4.35061,-12.696751 5.05909,-18.122419 0.24057,-1.842293 -0.0302,-3.715747 -0.0453,-5.573619 -0.31406,-1.304655 -0.36794,-2.701121 -0.9422,-3.913968 -0.32652,-0.689639 -1.02809,-1.147752 -1.65817,-1.578129 -2.98396,-2.038172 -6.68186,-1.168942 -9.79016,-0.02761 -1.83595,1.011123 -11.39427,5.953929 -15.3336,8.719978 -5.954271,4.180856 -11.062587,9.461034 -15.847195,14.900992 -3.73739,4.967827 -7.48442,9.967796 -10.586762,15.370768 -2.587112,4.505659 -4.430033,9.381669 -6.290551,14.213639 -5.860912,15.49382 -11.443925,31.1188 -18.645616,46.06225 -2.6456,5.44881 -5.400704,10.835 -7.384999,16.57045 -0.279348,0.80743 -0.573379,1.61556 -0.744747,2.45259 -0.124701,0.60909 -0.727713,2.05755 -0.138195,1.86005 3.546597,-1.18819 6.645172,-3.43543 9.967757,-5.15315 1.625182,-5.51136 3.940836,-10.76202 6.484027,-15.9099 2.502781,-4.9426 3.273414,-6.55999 6.031762,-11.58021 6.110647,-11.12142 12.900067,-21.84377 19.184522,-32.86486 1.604801,-2.97688 3.318115,-5.89777 4.814403,-8.93066 1.566569,-3.17532 4.523226,-10.467027 5.809816,-13.927402 2.477844,-6.664348 0.959167,-3.165361 3.0211,-9.105709 0.402714,-1.160198 0.871355,-2.296451 1.307028,-3.444677 0.45456,-0.911656 0.84949,-1.855562 1.36368,-2.734963 0.42258,-0.722731 2.22973,-2.333649 1.43904,-2.05848 -2.92354,1.017426 -5.40803,3.01797 -8.176347,4.403138 -0.38918,0.194733 0.615689,-0.648901 1.015731,-0.820216 0.400359,-0.171453 1.82799,-0.05029 2.225685,-0.03005 2.125751,0.159303 4.272431,0.364125 6.296771,1.07687 0,0 9.31944,-6.243505 9.31944,-6.243505 z"
       id="path12"
       style="fill:#ff0000;stroke-width:0.264583" />
    <path
       d="m 63.485609,137.78735 c 3.714408,-1.25651 7.54699,-2.0936 11.385576,-2.86418 9.323657,-1.5073 18.747777,-2.25211 28.092815,-3.60793 1.39469,-0.21661 2.78938,-0.43322 4.18407,-0.64984 0,0 8.20659,-6.16893 8.20659,-6.16893 v 0 c -1.42791,0.2468 -2.85583,0.49359 -4.28374,0.74039 -6.74907,1.06609 -13.535921,1.88091 -20.340362,2.51287 -1.457518,0.13537 -2.92251,0.18411 -4.378782,0.3323 -0.996511,0.1014 -1.984018,0.27741 -2.976026,0.41611 -3.711678,0.65698 -7.42669,1.37403 -11.035887,2.47186 0,0 -8.854254,6.81735 -8.854254,6.81735 z"
       id="path14"
       style="fill:#ff0000;stroke-width:0.264583" />
    <path
       d="m 126.02288,104.92889 c -2.98024,10.23524 -7.5475,19.86017 -11.80065,29.5988 -3.90578,10.28023 -6.86265,20.89361 -8.99006,31.68011 -1.03747,5.26023 -1.44704,8.57943 -2.18938,13.78423 -0.55304,4.09409 -1.03906,8.21041 -0.97082,12.34901 0.0209,1.26795 0.0446,2.69471 0.5081,3.91395 0.16347,0.42996 0.46259,0.79522 0.69389,1.19282 0.3651,0.2629 0.65188,0.71257 1.09529,0.7887 2.00706,0.34459 4.56221,-0.99146 5.96366,-2.05281 4.91773,-3.72431 10.14104,-7.18779 14.31163,-11.73319 3.24197,-3.53334 14.74001,-25.17359 16.23509,-27.89625 2.90213,-5.80216 5.99438,-11.51307 8.7064,-17.40649 5.28568,-11.4862 10.93464,-26.15922 15.33378,-38.02455 5.4835,-14.79005 10.47628,-29.752367 15.44827,-44.719351 0.83584,-2.53891 4.04695,-12.210335 5.08647,-15.619547 0.16199,-0.531276 0.83391,-1.959232 0.39508,-1.618755 -4.30362,3.339065 -8.89068,6.527776 -12.24933,10.816137 -2.3081,2.947008 -2.83591,6.929411 -4.33527,10.359292 -1.91276,4.375563 -3.93339,8.703175 -5.90008,13.054761 -6.33505,14.019456 -12.84009,27.964873 -19.57546,41.796903 -6.76735,13.89772 -6.01033,11.79052 -12.38338,25.38604 -1.68318,3.5907 -3.29136,7.21607 -4.93704,10.8241 -3.48319,7.93571 -6.61274,16.02095 -9.32408,24.25195 -0.92948,2.82168 -2.24692,7.03873 -2.95709,10.02565 -0.31632,1.33041 -0.53363,2.68243 -0.80045,4.02364 -0.71568,3.57647 -1.24505,7.18175 -1.652,10.80466 0,0 9.70752,-4.83353 9.70752,-4.83353 v 0 c 0.25534,-3.51254 0.63588,-7.01495 1.2348,-10.48755 2.3105,-12.8351 6.51229,-25.23009 11.43512,-37.28676 1.5159,-3.54131 2.97426,-7.10781 4.54768,-10.62393 3.81783,-8.5317 7.86663,-16.75206 11.92886,-25.17353 9.97721,-20.683888 3.53669,-7.174 13.13545,-27.734076 2.20494,-4.722868 4.42452,-9.438891 6.63677,-14.158338 2.18865,-4.455639 4.36406,-8.91781 6.56596,-13.366914 1.79125,-3.619346 5.69392,-6.809716 5.41343,-10.838309 -0.15104,-2.169282 -4.14935,-1.345489 -6.28881,-1.734421 -0.30465,-0.05538 0.64225,0.394007 0.60856,0.701807 -0.2511,2.294218 -3.47126,14.093632 -3.68994,14.925305 -9.69857,34.199229 -20.95344,68.199486 -38.26,99.406656 -3.16215,5.36294 -6.11884,10.85246 -9.48645,16.08884 -2.78164,4.32522 -6.73155,7.92788 -8.9445,12.56985 -0.3925,0.82332 2.38002,0.82815 2.13807,1.70756 -0.002,0.009 -3.85305,2.3877 -4.77353,2.53955 -0.29515,0.0487 -0.55823,-0.21518 -0.83735,-0.32278 -1.04476,-1.46187 -1.14838,-2.5577 -1.30402,-4.37913 -0.33713,-3.94557 -0.0851,-7.89988 0.28304,-11.83452 0.60465,-5.52768 0.76568,-7.85514 1.80743,-13.50579 2.00744,-10.88871 5.11152,-21.579 9.5487,-31.73165 4.37615,-9.97361 8.87894,-19.89339 12.64035,-30.12305 0,0 -9.75971,4.6149 -9.75971,4.6149 z"
       id="path16"
       style="fill:#ff0000;stroke-width:0.264583" />
    <path
       d="m 158.77011,163.82436 c -0.43893,0.84874 -0.55115,1.82444 -0.95283,2.685 -1.07699,2.30736 -3.28822,5.92054 -4.54293,7.93743 -2.48294,3.99127 -4.12563,6.39601 -6.75048,10.34588 -4.99607,7.67881 -10.23589,15.18992 -15.59543,22.61702 1.96423,-0.99849 -3.16733,3.08984 -2.18756,2.54829 2.97735,-1.64568 5.93732,-3.34333 8.73064,-5.28503 0.18262,-0.12694 -0.17229,-0.41234 -0.22282,-0.62894 -0.24215,-1.03789 -0.5523,-2.06879 -0.65409,-3.12969 -0.18757,-1.95499 -0.14074,-3.92542 -0.21111,-5.88812 0.35995,-4.27009 0.54372,-8.5587 1.07984,-12.81026 1.49922,-11.8891 3.97778,-24.56112 6.88418,-36.13663 3.32444,-13.24046 7.07856,-25.23049 12.25751,-37.8721 2.63393,-6.42935 5.7461,-12.652234 8.61915,-18.978347 3.20249,-5.975734 6.25546,-12.034033 9.60745,-17.927201 9.58769,-16.856186 20.82101,-34.023114 33.96879,-48.369109 2.02746,-2.212234 4.23619,-4.251241 6.35428,-6.376861 -6.83301,1.639749 13.72996,-8.8710086 9.78554,-7.6276924 -1.95351,0.6157632 -3.98159,1.6326484 -5.19381,3.2836704 -0.62031,0.844843 2.06852,-0.545067 3.11218,-0.448527 3.21475,0.297371 3.76662,1.664307 5.98337,3.834501 0.70575,1.739241 1.69191,3.389575 2.11726,5.217724 0.59377,2.552053 0.85148,5.187934 0.91322,7.807423 0.0746,3.1627 0.0353,6.360279 -0.50577,9.477243 -1.57145,9.052853 -4.76392,16.343704 -9.09604,24.452008 -2.45014,4.585854 -5.36183,8.909756 -8.04274,13.364633 -12.01779,17.46994 -26.25486,33.425415 -42.73668,46.810615 -7.40403,6.01295 -12.48232,9.16454 -20.24529,14.34427 -2.63245,1.57341 -5.26491,3.14683 -7.89736,4.72024 0.69207,-0.43411 2.8313,-1.61421 2.07622,-1.30233 -1.47714,0.61011 -2.8312,1.48385 -4.25816,2.20356 -0.96719,0.48781 -1.94603,0.95227 -2.9237,1.41871 -0.53605,0.25575 -1.14523,0.38736 -1.61729,0.7478 -2.8424,2.17033 -5.52448,4.54296 -8.28672,6.81444 3.56879,0.45744 7.22375,0.18866 10.7753,0.78511 8.10613,1.36133 18.72488,4.82305 25.31099,9.86706 2.36778,1.81338 4.23066,4.20481 6.34599,6.30722 7.61061,10.25064 10.98248,20.24222 11.80003,32.78743 0.11397,2.26021 -0.0316,4.51494 -0.2093,6.76596 0,0 9.73475,-4.90492 9.73475,-4.90492 v 0 c 0.0247,-2.23949 0.0126,-4.48003 -0.23584,-6.71019 -0.40055,-3.01423 -0.53529,-4.5735 -1.29038,-7.64886 -2.23845,-9.11673 -6.26203,-17.62745 -12.06283,-25.0309 -2.1589,-2.16703 -4.05647,-4.63043 -6.4767,-6.50107 -4.93933,-3.81768 -10.78443,-5.93224 -16.59223,-7.9357 -5.77368,-1.99169 -11.57117,-3.68289 -17.71754,-3.80025 -3.19134,1.99089 -6.42397,3.91707 -9.57401,5.97268 -0.59874,0.39072 1.2743,-0.64869 1.91171,-0.97252 1.08139,-0.54938 2.16919,-1.08631 3.2447,-1.64713 8.85883,-4.61941 17.45789,-9.72546 25.90397,-15.05811 7.31182,-5.02753 12.42294,-8.32513 19.3975,-14.11929 16.2866,-13.53017 30.32346,-29.547503 42.38733,-46.90727 2.77942,-4.527981 5.78117,-8.926793 8.33827,-13.583947 4.40786,-8.027868 8.16921,-16.214058 10.01643,-25.238183 0.65612,-3.205326 0.74534,-6.512073 0.78951,-9.783565 0.0374,-2.770543 -0.0582,-5.566855 -0.54543,-8.294472 -0.3578,-2.002993 -1.31227,-3.852009 -1.9684,-5.778013 -2.22849,-2.4846109 -2.88115,-4.1411607 -6.3251,-4.7489581 -5.39592,-0.9522862 -13.51522,5.7948211 -15.70062,7.1229951 -3.17889,1.931971 -6.21101,5.004216 -8.88609,7.450524 -1.94899,2.078525 -3.98454,4.079151 -5.84699,6.235576 -8.51701,9.861407 -15.79573,20.699148 -22.54941,31.817881 -3.15617,5.196083 -6.25366,10.430335 -9.20029,15.748053 -3.26826,5.898171 -6.29334,11.927845 -9.44002,17.891767 -2.94012,6.375345 -6.1414,12.636612 -8.82036,19.126032 -5.62411,13.62368 -8.48462,23.71917 -12.22477,37.94172 -4.39799,16.72407 -7.85172,33.64319 -10.99021,50.64183 -0.14024,2.82688 -0.67207,6.93711 0.0679,9.95165 0.19205,0.78236 0.27456,2.43859 1.03831,2.18235 7.08504,-2.37706 8.90491,-3.96749 11.99115,-8.46594 4.92696,-7.39767 9.82981,-14.81122 14.70114,-22.24584 2.77188,-4.11145 4.31882,-6.36289 6.9896,-10.4893 1.09841,-1.69707 4.16122,-6.4936 5.24702,-8.46778 0.49761,-0.90475 0.76703,-1.92185 1.27749,-2.82201 0,0 -10.18141,4.70876 -10.18141,4.70876 z"
       id="path18"
       style="fill:#ff0000;stroke-width:0.264583" />
    <path
       d="m 234.3301,43.125233 c -0.30286,1.823167 -0.50045,3.66698 -0.90859,5.469504 -3.26767,14.431624 -8.59678,28.325548 -14.0119,42.058968 -4.08206,10.352585 -11.58275,28.046425 -15.88792,38.293765 -10.73608,24.79797 -20.89839,49.8482 -29.59911,75.43667 -1.36777,3.98737 -2.52606,8.04016 -3.73951,12.07553 0,0 9.58884,-4.58008 9.58884,-4.58008 v 0 c 0.85742,-3.86645 1.67933,-7.74265 2.75487,-11.55683 1.71365,-6.06553 2.61102,-9.41112 4.60924,-15.65744 6.33103,-19.79037 13.99443,-39.11188 21.96926,-58.28871 13.32192,-31.760897 2.71422,-6.54784 16.23112,-38.46375 2.55519,-6.033265 5.20224,-12.02875 7.64939,-18.106641 4.15187,-10.311871 7.84278,-20.83462 11.23451,-31.418808 0,0 -9.8902,4.737822 -9.8902,4.737822 z"
       id="path20"
       style="fill:#ff0000;stroke-width:0.264583" />
    <path
       d="m 246.89459,39.452153 c 10.17614,-9.437212 21.113,-18.040587 31.86355,-26.812441 7.14129,-5.7969026 14.30565,-11.5536962 21.99624,-16.6081175 0.73586,-0.4578143 2.96019,-1.8031716 2.20758,-1.3734428 -2.419,1.3812285 -4.81618,2.8005802 -7.20788,4.228575 -0.95211,0.56846574 1.96358,-1.0319068 2.92724,-1.5805144 3.50356,-1.9945085 6.96362,-4.0655965 10.48671,-6.025358 2.88748,-1.6061893 -5.71974,3.3096781 -8.57962,4.9645172 0,0 8.62201,-6.9693475 8.62201,-6.9693475 v 0 c -3.4466,1.9867047 -6.91381,3.9380356 -10.33976,5.960114 -2.76363,1.631153 5.5821,-3.1678615 8.35263,-4.7872607 0.45622,-0.2666712 -0.94366,0.4763278 -1.40822,0.728182 -0.56319,0.305312 -1.11887,0.6243344 -1.67457,0.9430528 -11.61966,6.6643079 -7.59786,4.1231658 -13.27441,7.78129506 C 283.60838,4.8261132 276.9131,10.475018 270.18668,16.093408 c -6.9946,5.810009 -14.03276,11.559291 -21.10424,17.275458 -2.29714,1.856875 -8.12883,6.538928 -10.68894,8.754565 -0.60058,0.519766 -1.14969,1.096187 -1.72453,1.644282 0,0 10.22562,-4.31556 10.22562,-4.31556 z"
       id="path22"
       style="fill:#ff0000;stroke-width:0.264583" />
    <path
       d="m 207.86679,141.5804 c 9.52806,-15.83989 19.88358,-31.1805 31.71881,-45.405936 4.04983,-4.867717 8.37008,-9.503934 12.55512,-14.255901 4.37026,-4.560753 8.68028,-9.180002 13.11079,-13.682258 7.06861,-7.183104 17.35891,-17.05943 24.68345,-24.17668 8.1229,-7.893013 16.20904,-15.821932 24.37816,-23.667121 0,0 -8.54821,3.535084 -8.54821,3.535084 v 0 c -7.50504,7.655462 -14.9796,15.339586 -22.56645,22.914504 -12.46259,12.442965 -25.1856,24.635436 -37.09544,37.62035 -4.27909,4.805746 -8.6887,9.498367 -12.83725,14.417238 -6.56651,7.7858 -15.23942,19.31439 -21.31226,27.59977 -2.59206,3.53644 -5.06924,7.15589 -7.6436,10.70523 -1.64212,2.26404 -3.35978,4.47261 -5.00532,6.73417 -0.56297,0.77372 -1.07947,1.5802 -1.61921,2.37031 0,0 10.18141,-4.70876 10.18141,-4.70876 z"
       id="path24"
       style="fill:#ff0000;stroke-width:0.264583" />
    <path
       d="m 185.27801,204.42797 c 21.90136,-33.04929 46.4824,-64.28142 72.15491,-94.46886 6.33007,-7.44332 12.85472,-14.718964 19.28208,-22.078448 21.08182,-23.359527 11.02855,-12.376493 30.11258,-32.992265 0,0 -6.02245,2.531636 -6.02245,2.531636 v 0 c -17.49771,20.019901 -8.20579,9.341271 -27.85628,32.052873 -6.21237,7.271123 -12.48573,14.490574 -18.63711,21.813374 -16.22522,19.315 -24.79094,30.08985 -40.70869,49.78061 -6.22527,7.70085 -12.49261,15.36793 -18.67238,23.10536 -6.46554,8.09521 -12.71738,16.35966 -19.23962,24.4102 0,0 9.58696,-4.15448 9.58696,-4.15448 z"
       id="path26"
       style="fill:#ff0000;stroke-width:0.264583" />
    <path
       d="m 270.35818,91.296597 c -4.46569,6.060406 -5.90487,8.077542 -11.56408,15.235663 -3.70506,4.68641 -7.63578,9.1943 -11.26027,13.94329 -4.44604,5.82542 -8.68173,11.80896 -12.94389,17.77023 -3.30901,4.62816 -21.59043,30.80121 -25.20172,35.9665 -9.8226,14.17327 -19.96373,28.12121 -30.7767,41.5549 0,0 8.64282,-3.71352 8.64282,-3.71352 v 0 c 9.58678,-13.18334 18.65114,-26.73069 27.71928,-40.27408 7.57534,-11.09297 16.98553,-25.06545 24.8836,-35.8048 11.201,-15.23048 14.30618,-18.83153 26.06583,-32.47568 5.11376,-5.933262 9.61387,-10.966208 14.65977,-16.636895 0,0 -10.22464,4.434392 -10.22464,4.434392 z"
       id="path28"
       style="fill:#ff0000;stroke-width:0.264583" />
    <path
       d="m 270.69473,89.208638 c -1.81179,10.931112 -3.58862,21.878272 -5.95535,32.709052 -0.87037,3.98307 -1.86613,7.93769 -2.7992,11.90654 -5.17683,20.70857 -11.59763,41.07622 -17.75244,61.50756 -2.13601,7.59577 -4.94026,14.9708 -7.4198,22.45392 -0.23129,0.97125 -0.60603,1.89833 -0.88604,2.85444 -0.044,0.15016 -0.22098,0.55713 -0.0993,0.45877 5.0296,-4.06499 10.57911,-7.61281 14.902,-12.42255 3.80848,-4.23739 6.22892,-9.54335 9.20631,-14.40083 4.7144,-7.69135 9.24428,-15.49429 13.86641,-23.24143 31.8489,-54.13233 63.10948,-108.712742 98.30081,-160.780558 5.47023,-8.0935797 11.18793,-16.017126 16.78191,-24.025689 17.19583,-23.330558 9.0682,-12.533791 24.29999,-32.452513 0,0 -6.57352,2.842239 -6.57352,2.842239 v 0 c -13.36119,19.19088 -6.16725,8.775615 -21.53988,31.274729 -15.24154,23.084966 -18.28835,27.401704 -33.68546,52.098262 -27.47843,44.074709 -53.39138,89.11546 -81.53127,132.7817 -5.40244,8.08191 -10.68242,16.24703 -16.20731,24.24573 -3.55306,5.14396 -8.67481,9.38057 -11.02162,15.17514 -0.63988,1.57994 2.16274,2.63631 3.29013,3.91485 0.0457,0.0519 -0.033,-0.13854 -0.0202,-0.20652 0.1003,-0.53326 0.59976,-2.37052 0.69557,-2.73248 2.10695,-7.27391 4.34706,-14.51043 6.13626,-21.87345 5.43657,-20.38967 11.3931,-40.63559 16.71569,-61.05545 3.65403,-15.3058 6.93113,-30.728188 11.39039,-45.825648 0,0 -10.09406,4.794186 -10.09406,4.794186 z"
       id="path32"
       style="fill:#ff0000;stroke-width:0.264583" />
  </g>
</svg>
